HIERARCHY
ROOT Hips
{
	OFFSET	0.00	0.00	0.00
	CHANNELS 6 Xposition Yposition Zposition Zrotation Xrotation Yrotation
	JOINT LeftUpLeg
	{
		OFFSET	 0.126116	-0.014019	-0.065224
		CHANNELS 3 Zrotation Xrotation Yrotation
		JOINT LeftLeg
		{
			OFFSET	 0.000000	 0.000000	 0.569914
			CHANNELS 3 Zrotation Xrotation Yrotation
			JOINT LeftFoot
			{
				OFFSET	 0.000000	 0.000000	 0.544423
				CHANNELS 3 Zrotation Xrotation Yrotation
				JOINT LeftToeBase
				{
					OFFSET	 0.000000	 0.000000	 0.207117
					CHANNELS 3 Zrotation Xrotation Yrotation
					End Site
					{
						OFFSET	 0.000000	 0.000000	 0.207117
					}
				}
			}
		}
	}
	JOINT RightUpLeg
	{
		OFFSET	-0.124023	-0.008373	-0.065224
		CHANNELS 3 Zrotation Xrotation Yrotation
		JOINT RightLeg
		{
			OFFSET	 0.000000	 0.000000	 0.570047
			CHANNELS 3 Zrotation Xrotation Yrotation
			JOINT RightFoot
			{
				OFFSET	 0.000000	 0.000000	 0.544354
				CHANNELS 3 Zrotation Xrotation Yrotation
				JOINT RightToeBase
				{
					OFFSET	 0.000000	 0.000000	 0.207540
					CHANNELS 3 Zrotation Xrotation Yrotation
					End Site
					{
						OFFSET	 0.000000	 0.000000	 0.207540
					}
				}
			}
		}
	}
	JOINT Spine
	{
		OFFSET	 0.000184	-0.007763	 0.117403
		CHANNELS 3 Zrotation Xrotation Yrotation
		JOINT Spine1
		{
			OFFSET	 0.000000	 0.000000	 0.137269
			CHANNELS 3 Zrotation Xrotation Yrotation
			JOINT Spine2
			{
				OFFSET	 0.000000	 0.000000	 0.156879
				CHANNELS 3 Zrotation Xrotation Yrotation
				JOINT LeftShoulder
				{
					OFFSET	 0.080501	-0.002496	 0.160144
					CHANNELS 3 Zrotation Xrotation Yrotation
					JOINT LeftArm
					{
						OFFSET	 0.000000	 0.000000	 0.164363
						CHANNELS 3 Zrotation Xrotation Yrotation
						JOINT LeftForeArm
						{
							OFFSET	 0.000000	 0.000000	 0.364576
							CHANNELS 3 Zrotation Xrotation Yrotation
							JOINT LeftHand
							{
								OFFSET	 0.000000	 0.000000	 0.360812
								CHANNELS 3 Zrotation Xrotation Yrotation
								JOINT LeftHandIndex1
								{
									OFFSET	 0.000000	 0.000000	 0.086006
									CHANNELS 3 Zrotation Xrotation Yrotation
									JOINT LeftHandIndex2
									{
										OFFSET	 0.000000	 0.000000	 0.047236
										CHANNELS 3 Zrotation Xrotation Yrotation
										JOINT LeftHandIndex3
										{
											OFFSET	-0.004284	-0.000551	 0.038166
											CHANNELS 3 Zrotation Xrotation Yrotation
											End Site
											{
												OFFSET	-0.004284	-0.000551	 0.038166
											}
										}
									}
								}
							}
						}
					}
				}
				JOINT Neck
				{
					OFFSET	 0.000000	 0.000000	 0.176489
					CHANNELS 3 Zrotation Xrotation Yrotation
					JOINT Head
					{
						OFFSET	 0.000000	-0.001747	 0.077940
						CHANNELS 3 Zrotation Xrotation Yrotation
						End Site
						{
							OFFSET	 0.000000	-0.001747	 0.077940
						}
					}
				}
				JOINT RightShoulder
				{
					OFFSET	-0.080363	 0.000306	 0.159706
					CHANNELS 3 Zrotation Xrotation Yrotation
					JOINT RightArm
					{
						OFFSET	 0.000000	 0.000000	 0.164196
						CHANNELS 3 Zrotation Xrotation Yrotation
						JOINT RightForeArm
						{
							OFFSET	 0.000000	 0.000000	 0.365611
							CHANNELS 3 Zrotation Xrotation Yrotation
							JOINT RightHand
							{
								OFFSET	 0.000000	 0.000000	 0.360648
								CHANNELS 3 Zrotation Xrotation Yrotation
								JOINT RightHandIndex1
								{
									OFFSET	 0.000000	 0.000000	 0.069977
									CHANNELS 3 Zrotation Xrotation Yrotation
									JOINT RightHandIndex2
									{
										OFFSET	 0.000000	 0.000000	 0.052305
										CHANNELS 3 Zrotation Xrotation Yrotation
										JOINT RightHandIndex3
										{
											OFFSET	 0.009002	-0.000782	 0.042196
											CHANNELS 3 Zrotation Xrotation Yrotation
											End Site
											{
												OFFSET	 0.009002	-0.000782	 0.042196
											}
										}
									}
								}
							}
						}
					}
				}
			}
		}
	}
}
MOTION
Frames:    7
Frame Time: 0.03333334
-0.000623	 0.024769	 1.273482	 0.002104	-0.000678	-0.177624	 19.258160	-2.271573	 175.980900	 1.494042	-10.143240	-0.589707	-8.021335	 68.004340	 2.126591	-2.385833	 28.452760	 0.000004	-19.301330	-3.459374	-175.855400	-1.465519	-11.486690	 0.657510	 7.704364	 68.436870	-1.908947	 2.384658	 28.388730	 0.000004	 41.961890	 2.770641	-0.097770	 2.050991	 3.575727	 0.812592	-6.171372	-4.385912	-1.337612	-91.776200	 78.527420	-180.000000	 45.155850	 31.827770	-52.732850	-27.232770	 3.944108	-10.731630	-46.772740	 0.865788	-4.186670	-2.635965	 4.993658	 6.788941	-5.165319	 0.784187	 3.516649	-5.225038	 0.466231	 0.424329	-0.000002	-3.783157	-0.089647	-6.001628	 4.727695	 0.247961	 89.782100	 78.203890	 180.000000	 1.681133	 12.729350	 106.492600	-15.223550	 3.634059	 10.874330	 21.375640	-2.807365	-5.509924	 6.112037	 4.509576	-0.364401	 4.968462	 1.518543	-9.347576	 5.168945	 0.703820	 2.021906
-0.000618	 0.025225	 1.274104	 0.002351	 0.000511	-0.167101	 19.258500	-2.287516	 175.973800	 1.493917	-10.154880	-0.590398	-8.008731	 67.934070	 2.115647	-2.385833	 28.452760	 0.000004	-19.304700	-3.466995	-175.872200	-1.465867	-11.456870	 0.655757	 7.661978	 68.327730	-1.866493	 2.384658	 28.388730	 0.000004	 40.542130	 2.769005	-0.088465	 1.940933	 3.570800	 0.771362	-5.839534	-4.397960	-1.267294	-91.776130	 78.527450	 180.000000	 45.163000	 31.870550	-52.768930	-24.330740	 2.897289	-9.270989	-45.726730	 1.614785	-3.949336	-2.635965	 4.993658	 6.788941	-5.165319	 0.784187	 3.516649	-5.225038	 0.466231	 0.424329	-0.000002	-3.783157	-0.089647	-5.677364	 4.771850	 0.236733	 89.782100	 78.203890	 180.000000	 1.625675	 12.847090	 106.512900	-18.225030	 2.579526	 9.397964	 20.478330	-1.980296	-5.824685	 6.112037	 4.509576	-0.364401	 4.968462	 1.518543	-9.347576	 5.168945	 0.703820	 2.021906
-0.000580	 0.025650	 1.274578	 0.002856	 0.002168	-0.153794	 19.244900	-2.303785	 175.964900	 1.493793	-10.166450	-0.591086	-8.012956	 67.864200	 2.108179	-2.385833	 28.452760	 0.000004	-19.321190	-3.470948	-175.890600	-1.466311	-11.418710	 0.653515	 7.603253	 68.215450	-1.819806	 2.384658	 28.388730	 0.000004	 37.699180	 2.765811	-0.076304	 1.799877	 3.568282	 0.718648	-5.414642	-4.416845	-1.177508	-91.776130	 78.527470	 179.999900	 45.191630	 31.953750	-52.858060	-21.229700	 1.969195	-7.651904	-44.588450	 2.024040	-3.842031	-2.635965	 4.993658	 6.788941	-5.165319	 0.784187	 3.516649	-5.225038	 0.466231	 0.424329	-0.000002	-3.783157	-0.089647	-5.262283	 4.822851	 0.221746	 89.782140	 78.203870	 180.000000	 1.638192	 13.002480	 106.500500	-21.433480	 1.643952	 7.763029	 19.441000	-1.480161	-6.019467	 6.112037	 4.509576	-0.364401	 4.968462	 1.518543	-9.347576	 5.168945	 0.703820	 2.021906
-0.000517	 0.026090	 1.275005	 0.003397	 0.004054	-0.136702	 19.245030	-2.326346	 175.952200	 1.493597	-10.185080	-0.592194	-8.000564	 67.793210	 2.098119	-2.385833	 28.452760	 0.000004	-19.325720	-3.469908	-175.913200	-1.466863	-11.371040	 0.650712	 7.556776	 68.091860	-1.772878	 2.384658	 28.388730	 0.000004	 33.153140	 2.761321	-0.060157	 1.615694	 3.567765	 0.649291	-4.859680	-4.442711	-1.059916	-91.776210	 78.527450	-180.000000	 45.249530	 32.079830	-53.012700	-17.693600	 1.148852	-5.748302	-43.263690	 2.064628	-3.855363	-2.635965	 4.993658	 6.788941	-5.165319	 0.784187	 3.516649	-5.225038	 0.466231	 0.424329	-0.000002	-3.783157	-0.089647	-4.720488	 4.882251	 0.201340	 89.782070	 78.203900	-180.000000	 1.390378	 13.150260	 106.417200	-25.096000	 0.816072	 5.838233	 18.175730	-1.278436	-6.113089	 6.112037	 4.509576	-0.364401	 4.968462	 1.518543	-9.347576	 5.168945	 0.703820	 2.021906
-0.000477	 0.026535	 1.275679	 0.003837	 0.005731	-0.118620	 19.244820	-2.351514	 175.938900	 1.493334	-10.209990	-0.593672	-7.990725	 67.731600	 2.090480	-2.385833	 28.452760	 0.000004	-19.330100	-3.465872	-175.935800	-1.467430	-11.322200	 0.647843	 7.513521	 67.975110	-1.729117	 2.384658	 28.388730	 0.000004	 27.664570	 2.756571	-0.042302	 1.416061	 3.568950	 0.573689	-4.258022	-4.469843	-0.931915	-91.776180	 78.527420	 180.000000	 45.321690	 32.223800	-53.198430	-14.243460	 0.589553	-3.847227	-41.942260	 1.715423	-3.965195	-2.635965	 4.993658	 6.788941	-5.165319	 0.784187	 3.516649	-5.225038	 0.466231	 0.424329	-0.000002	-3.783157	-0.089647	-4.133749	 4.938643	 0.178329	 89.782100	 78.203890	 180.000000	-0.215076	 12.994130	 106.127100	-28.662120	 0.251389	 3.915404	 16.417850	-1.274197	-6.130375	 6.112037	 4.509576	-0.364401	 4.968462	 1.518543	-9.347576	 5.168945	 0.703820	 2.021906
-0.000458	 0.027059	 1.276723	 0.004167	 0.007249	-0.097220	 19.244340	-2.383897	 175.923200	 1.492945	-10.247330	-0.595892	-7.982260	 67.671130	 2.084553	-2.385833	 28.452760	 0.000004	-19.334950	-3.458829	-175.961600	-1.468070	-11.266200	 0.644554	 7.466973	 67.848140	-1.682071	 2.384658	 28.388730	 0.000004	 20.593800	 2.751422	-0.020210	 1.173669	 3.571268	 0.481250	-3.527257	-4.499625	-0.775631	-91.776150	 78.527430	 180.000000	 45.407880	 32.404780	-53.427570	-10.398270	 0.245096	-1.699077	-40.432920	 0.914325	-4.156103	-2.635965	 4.993658	 6.788941	-5.165319	 0.784187	 3.516649	-5.225038	 0.466231	 0.424329	-0.000002	-3.783157	-0.089647	-3.421876	 4.996566	 0.149329	 89.782140	 78.203920	 180.000000	-3.480507	 12.763570	 105.643900	-32.446370	-0.096512	 1.743356	 14.059810	-1.612509	-6.050149	 6.112037	 4.509576	-0.364401	 4.968462	 1.518543	-9.347576	 5.168945	 0.703820	 2.021906
-0.000436	 0.027523	 1.277691	 0.004265	 0.008180	-0.077199	 19.243730	-2.416715	 175.908800	 1.492497	-10.289550	-0.598399	-7.976665	 67.623330	 2.081285	-2.385833	 28.452760	 0.000004	-19.339080	-3.451208	-175.985200	-1.468644	-11.215870	 0.641600	 7.426555	 67.736460	-1.641156	 2.384658	 28.388730	 0.000004	 13.595840	 2.749505	-0.037893	 0.937988	 3.570827	 0.465784	-2.826683	-4.521043	-0.658955	-91.776170	 78.527490	 180.000000	 45.493450	 32.591690	-53.662720	-6.953917	 0.154633	-1.136079	-39.042680	-0.149235	-4.353745	-2.635965	 4.993658	 6.788941	-5.165319	 0.784187	 3.516649	-5.225038	 0.466231	 0.424329	-0.000002	-3.783157	-0.089647	-2.737618	 5.041807	 0.120536	 89.782080	 78.203900	-180.000000	-7.118659	 12.776320	 104.849100	-35.592800	-0.186470	 1.161006	 11.776710	-2.293809	-5.907111	 6.112037	 4.509576	-0.364401	 4.968462	 1.518543	-9.347576	 5.168945	 0.703820	 2.021906
